Coordinates
version=1
nRows=10
nColumns=23
inDegrees=yes

Units are S.I. units (second, meters, Newtons, ...)
If the header above contains a line with 'inDegrees', this indicates whether rotational values are in degrees (yes) or radians (no).

endheader
time	pelvis_tilt	pelvis_list	pelvis_rotation	pelvis_tx	pelvis_ty	pelvis_tz	hip_flexion_r	hip_adduction_r	hip_rotation_r	knee_angle_r	knee_angle_r_beta	ankle_angle_r	subtalar_angle_r	mtp_angle_r	hip_flexion_l	hip_adduction_l	hip_rotation_l	knee_angle_l	knee_angle_l_beta	ankle_angle_l	subtalar_angle_l	mtp_angle_l
      7.50000000	     -0.38203944	     -6.23275283	     -0.54026822	      2.07840041	      1.01793052	      0.99217042	     15.86355182	      9.05737583	     -7.10946314	     42.34141499	      0.73899710	     25.52325064	    -10.10767849	      0.00000000	     15.09960779	     -9.40786934	      6.12077531	     95.14317393	      1.66056165	     -0.80939318	    -14.30122859	      0.00000000
      7.50666667	     -0.72384354	     -5.87393446	     -0.01184359	      2.07776784	      1.01793376	      0.99099192	     15.03455346	      8.32689314	     -7.91938770	     42.06528246	      0.73417768	     26.51285992	     -8.93167943	      0.00000000	     16.92632407	     -8.60449230	      7.01672154	     95.45455759	      1.66599632	     -0.07416559	    -13.33488617	      0.00000000
      7.51333333	     -0.96123120	     -5.51869476	     -0.05567351	      2.07723090	      1.01908622	      0.99086568	     13.89093022	      8.01831070	     -7.60472430	     41.34301795	      0.72157179	     26.83791263	     -8.76475604	      0.00000000	     18.35157897	     -8.05411848	      7.21633781	     95.29875015	      1.66327696	      0.11637981	    -13.09534855	      0.00000000
      7.52000000	     -1.01579461	     -5.26320094	      0.60114873	      2.07737143	      1.02093272	      0.98958800	     12.37512704	      7.44553283	     -8.51602789	     40.32941830	      0.70388113	     27.20492972	     -7.55093635	      0.00000000	     19.66314043	     -7.33556256	      8.02899758	     94.97558971	      1.65763675	      0.81190677	    -12.05464403	      0.00000000
      7.52666667	     -1.22621394	     -4.88246125	      0.93335623	      2.07757816	      1.02327527	      0.98889829	     10.95530566	      6.94821495	     -8.85348765	     39.15554723	      0.68339322	     27.23212815	     -6.95648300	      0.00000000	     20.95259280	     -6.61044270	      8.40711654	     94.31236371	      1.64606127	      1.25264913	    -11.47355242	      0.00000000
      7.53333333	     -1.24733152	     -4.50418660	      1.33811778	      2.07821694	      1.02641937	      0.98811249	      9.19667584	      6.43586382	     -9.39192410	     37.73820794	      0.65865598	     27.11636953	     -5.94426068	      0.00000000	     21.90972151	     -5.90189024	      8.72539577	     93.34981600	      1.62926165	      1.70870184	    -10.89319195	      0.00000000
      7.54000000	     -1.29354989	     -4.07303059	      1.74452598	      2.07906706	      1.03005761	      0.98740017	      7.41098731	      5.89615164	     -9.97491148	     36.20154670	      0.63183618	     26.70998478	     -5.01285714	      0.00000000	     22.77779187	     -5.15653872	      8.94534242	     92.11643960	      1.60773517	      2.15232322	    -10.41514486	      0.00000000
      7.54666667	     -1.36143289	     -3.59277907	      2.14465037	      2.08014537	      1.03409793	      0.98671287	      5.61347681	      5.32155861	    -10.62274512	     34.59077036	      0.60372283	     26.05542829	     -4.09430283	      0.00000000	     23.55268426	     -4.38483827	      9.05270687	     90.64045492	      1.58197437	      2.58791113	    -10.03872674	      0.00000000
      7.55333333	     -1.38636892	     -3.10437413	      2.52004528	      2.08139811	      1.03859490	      0.98605616	      3.75222892	      4.76960623	    -11.30557998	     32.90688414	      0.57433347	     25.05244205	     -3.12479994	      0.00000000	     24.15467844	     -3.62964164	      9.06722750	     88.90838552	      1.55174406	      2.98559893	     -9.76404060	      0.00000000
      7.56000000	     -1.48486545	     -2.60965186	      2.91056556	      2.08284125	      1.04330347	      0.98541451	      1.98342219	      4.22965920	    -12.06073316	     31.21588293	      0.54481994	     23.66570447	     -2.31449801	      0.00000000	     24.73131094	     -2.88658717	      9.02276912	     86.96983362	      1.51790995	      3.38022081	     -9.57620673	      0.00000000
